<!DOCTYPE svg PUBLIC "-//W3C//DTD SVG 20010904//EN" "http://www.w3.org/TR/2001/REC-SVG-20010904/DTD/svg10.dtd">
<svg version="1.0" xmlns="http://www.w3.org/2000/svg" width="599px" height="444px" viewBox="0 0 5990 4440" preserveAspectRatio="xMidYMid meet">
<g id="layer101" fill="#020202" stroke="none">
 <path d="M2353 4420 c-71 -14 -150 -60 -222 -129 -38 -36 -255 -262 -482 -501 -226 -239 -428 -452 -449 -473 -20 -21 -52 -42 -71 -47 -19 -5 -61 -15 -94 -24 -57 -14 -101 -25 -320 -75 -49 -12 -137 -32 -195 -45 -58 -14 -127 -30 -155 -36 -65 -14 -75 -24 -75 -73 0 -34 6 -46 38 -76 22 -20 61 -47 88 -61 55 -28 227 -121 233 -126 2 -2 -72 -82 -164 -179 -93 -96 -179 -191 -192 -210 -42 -62 -64 -142 -65 -235 -1 -105 19 -176 69 -253 26 -39 326 -331 957 -932 807 -768 928 -880 985 -908 64 -31 68 -32 206 -32 207 0 204 -2 530 340 120 127 258 271 306 321 l88 91 108 -8 c59 -5 162 -13 228 -18 372 -31 460 -34 490 -20 62 29 63 72 24 569 -5 69 -13 175 -17 236 l-8 112 178 183 c258 266 288 318 288 493 -1 105 -19 170 -71 246 -28 42 -625 621 -861 836 -57 51 -74 75 -112 156 -31 68 -55 104 -83 127 -39 33 -128 71 -165 71 -13 0 -94 71 -227 198 -416 397 -438 417 -495 445 -89 44 -191 57 -293 37z"/>
 </g>
<g id="layer102" fill="#4d4d4d" stroke="none">
 <path d="M2353 4420 c-71 -14 -150 -60 -222 -129 -38 -36 -255 -262 -482 -501 -226 -239 -428 -452 -449 -473 -20 -21 -52 -42 -71 -47 -19 -5 -61 -15 -94 -24 -57 -14 -101 -25 -320 -75 -49 -12 -137 -32 -195 -45 -58 -14 -127 -30 -155 -36 -65 -14 -75 -24 -75 -74 0 -22 4 -36 8 -30 18 27 38 19 69 -27 39 -57 40 -63 11 -49 -22 11 -22 10 -4 -4 10 -9 23 -13 27 -10 5 3 9 1 9 -4 0 -5 12 -15 27 -23 46 -24 208 -112 212 -115 2 -2 -72 -82 -164 -179 -93 -96 -179 -191 -192 -210 -42 -62 -64 -142 -65 -235 -1 -105 19 -176 69 -253 26 -39 326 -331 957 -932 807 -768 928 -880 985 -908 64 -31 68 -32 206 -32 l140 0 64 34 c67 37 119 88 516 504 203 212 213 229 152 233 -12 0 -53 4 -92 7 -38 4 -115 9 -170 12 -55 3 -107 8 -115 10 -8 2 -67 7 -130 10 -63 4 -117 8 -120 10 -3 1 -61 6 -130 10 -68 3 -127 8 -130 10 -3 2 -57 6 -120 10 -63 3 -122 8 -130 10 -8 2 -62 7 -120 10 -159 9 -190 21 -221 78 -11 23 -22 48 -24 57 -2 8 -12 53 -24 100 -11 47 -28 121 -37 165 -9 44 -20 96 -24 115 -4 19 -11 51 -15 70 -4 19 -9 42 -12 50 -4 8 -8 29 -10 45 -2 17 -8 44 -13 60 -5 17 -11 41 -14 55 -3 14 -10 48 -16 75 -6 28 -15 68 -19 90 -5 22 -11 47 -14 55 -3 8 -8 31 -11 50 -3 19 -10 50 -15 68 -5 18 -10 33 -10 35 1 3 -6 38 -22 112 -7 33 -14 65 -15 71 -1 8 264 13 914 17 1386 10 1680 9 1679 -5 -2 -11 9 -168 18 -268 1 -19 6 -80 10 -135 12 -164 13 -177 25 -189 9 -8 57 36 186 169 254 263 284 315 284 489 -1 105 -19 170 -71 246 -28 42 -625 621 -861 836 -57 51 -74 75 -112 156 -31 68 -55 104 -83 127 -39 33 -128 71 -165 71 -13 0 -94 71 -227 198 -416 397 -438 417 -495 445 -89 44 -191 57 -293 37z m1091 -780 c89 -34 126 -74 176 -187 24 -54 58 -129 75 -168 77 -165 185 -408 183 -410 -2 -2 -68 -23 -147 -49 -98 -31 -149 -42 -157 -35 -11 9 -112 5 -192 -7 -33 -5 -33 -5 -17 -31 13 -19 14 -28 5 -37 -11 -11 -26 2 -50 44 -9 15 -97 17 -182 4 l-38 -6 26 -34 27 -34 81 6 c44 4 79 4 76 1 -3 -3 -74 -11 -157 -18 -84 -6 -153 -15 -153 -19 0 -4 9 -15 20 -25 14 -13 17 -21 9 -26 -6 -4 -23 7 -39 24 -27 31 -30 31 -106 28 -43 -1 -82 -5 -87 -8 -5 -3 2 -16 14 -29 19 -21 33 -24 98 -26 55 -1 62 -3 26 -5 -90 -6 -118 -13 -106 -27 18 -22 -1 -27 -23 -7 -14 13 -39 21 -76 24 -53 3 -53 3 14 5 l70 2 -29 30 c-26 27 -35 30 -84 29 -31 -1 -67 -4 -80 -8 l-24 -6 31 -27 c26 -21 28 -27 15 -32 -14 -6 -14 -8 2 -26 10 -11 32 -24 49 -29 28 -8 26 -9 -21 -10 -42 -1 -51 -4 -47 -16 8 -20 1 -19 -38 5 l-33 20 50 0 50 0 -30 25 c-25 20 -41 24 -92 25 -34 0 -64 -4 -68 -9 -6 -11 41 -50 64 -53 9 0 -6 -4 -34 -7 l-50 -6 33 -20 c28 -17 30 -21 15 -27 -10 -3 -35 -7 -56 -7 -23 -1 -36 -5 -32 -11 3 -5 2 -10 -4 -10 -5 0 -13 5 -16 10 -3 6 -33 10 -66 10 -42 0 -58 -3 -53 -11 4 -7 2 -10 -5 -8 -25 9 -11 24 26 29 l37 5 -27 18 c-21 13 -43 17 -90 15 l-62 -3 35 -22 c19 -13 29 -23 22 -23 -8 0 -27 10 -44 21 -17 12 -44 25 -62 29 -27 7 -24 8 24 10 126 5 172 -1 199 -26 22 -20 36 -24 88 -24 35 0 63 3 63 6 0 20 -50 43 -94 44 -36 0 -55 6 -78 25 -25 21 -40 25 -95 25 -65 0 -66 0 -48 -20 23 -26 15 -25 -32 2 -28 17 -33 24 -20 26 15 3 14 6 -8 24 -14 11 -38 24 -53 28 l-27 8 30 2 30 1 -30 24 c-24 20 -42 25 -90 26 -53 2 169 25 259 28 l30 1 -30 31 -29 31 -100 -6 c-55 -4 -138 -11 -185 -16 -47 -5 -173 -16 -280 -25 -227 -19 -236 -21 -197 -42 16 -8 26 -17 23 -20 -2 -3 -18 4 -34 16 -21 15 -45 21 -81 21 -28 0 -51 -3 -51 -8 0 -4 15 -16 33 -25 25 -14 51 -18 98 -16 56 3 69 0 89 -19 30 -28 54 -34 111 -30 l44 3 -29 20 c-16 11 -50 22 -75 26 l-46 6 58 2 c32 0 56 -3 53 -7 -3 -4 11 -16 30 -27 19 -10 34 -24 34 -30 0 -25 48 -45 107 -45 l58 0 -25 20 c-32 25 -20 26 20 2 16 -10 27 -22 23 -25 -4 -4 2 -14 13 -22 26 -19 9 -19 -20 1 -16 10 -42 14 -78 12 l-53 -3 35 -22 c19 -13 30 -23 23 -23 -16 0 -88 49 -88 61 0 22 -46 40 -97 37 l-53 -3 35 -22 c19 -13 46 -23 60 -24 23 -1 22 -2 -5 -8 l-30 -7 32 -17 c18 -9 48 -17 68 -17 22 0 50 -10 73 -25 20 -14 31 -25 24 -25 -7 0 -11 -3 -9 -7 4 -6 -109 -8 -242 -3 -8 0 -11 3 -8 7 4 3 -5 15 -20 25 -38 24 -22 23 19 -2 21 -13 51 -20 82 -20 47 0 49 1 30 15 -17 14 -16 14 13 0 18 -8 54 -15 80 -15 l48 0 -30 20 c-25 16 -47 19 -127 19 -87 0 -102 3 -131 23 -17 12 -39 31 -47 41 -8 10 -33 24 -55 32 -32 11 -35 14 -15 15 24 0 24 1 -8 20 -36 22 -139 29 -126 9 5 -8 1 -8 -14 0 -36 19 -32 26 13 23 24 -2 51 -2 61 0 32 6 -52 48 -95 48 -46 0 -56 -8 -33 -27 12 -10 8 -10 -15 2 -42 20 -121 21 -104 1 9 -11 5 -11 -25 -2 l-35 11 6 65 c9 94 47 445 49 446 0 1 91 22 201 47 110 26 376 87 590 137 215 50 437 102 495 116 58 13 164 38 235 55 72 17 168 39 215 50 47 10 150 34 230 53 127 31 158 35 250 32 80 -2 119 -8 164 -26z m-1536 -995 c32 -29 18 -33 -18 -5 -26 21 -103 27 -129 11 -11 -7 -9 -11 9 -21 12 -6 19 -14 16 -17 -2 -3 -18 4 -34 16 -19 13 -48 22 -79 23 -39 1 -34 3 27 8 159 14 179 12 208 -15z m-748 -26 l45 -6 -56 -2 c-43 -1 -56 2 -56 14 0 8 5 11 11 7 6 -3 31 -9 56 -13z m-95 -17 c-8 -8 47 -42 68 -42 9 0 17 -4 17 -8 0 -5 31 -25 70 -45 60 -32 79 -37 137 -37 62 0 65 1 47 15 -14 12 -9 11 20 -2 36 -17 37 -18 15 -24 -24 -5 -24 -6 -2 -13 11 -4 27 -14 35 -23 11 -14 11 -16 -2 -8 -8 4 -27 17 -42 27 -16 11 -44 18 -75 18 l-48 0 63 -35 c61 -34 142 -49 126 -24 -5 8 -1 8 14 0 11 -6 37 -11 57 -11 24 0 34 4 29 11 -5 8 -1 8 14 0 23 -12 96 -15 89 -3 -3 4 98 6 224 5 126 -1 229 0 229 2 0 3 -12 11 -27 19 -16 8 -21 15 -13 15 8 0 26 -8 40 -19 26 -20 79 -26 108 -11 9 4 39 5 67 2 l50 -6 -142 -42 -142 -43 -309 0 c-263 0 -311 2 -322 15 -7 8 -15 15 -19 15 -4 0 -99 50 -211 110 -112 61 -208 110 -212 110 -4 0 -8 10 -8 23 0 21 4 23 30 19 17 -2 28 -7 25 -10z m944 2 c2 -2 -13 -4 -35 -4 l-39 0 25 -20 c14 -11 21 -20 15 -20 -5 0 -21 9 -35 20 -14 11 -34 20 -45 21 -13 1 -10 4 10 8 27 7 94 3 104 -5z m-176 -5 c7 0 1 -4 -13 -8 -14 -4 -47 -5 -75 -2 l-50 5 50 7 c28 3 56 4 63 2 8 -1 19 -3 25 -4z m-503 -39 c-10 -6 43 -37 75 -42 41 -8 -28 -13 -85 -7 l-55 6 50 1 50 2 -33 20 c-18 11 -51 21 -75 22 l-42 1 44 4 c40 4 42 5 25 19 -14 10 -8 10 19 -3 20 -9 33 -19 27 -23z m713 -11 c24 -1 19 -3 -17 -8 -26 -4 -62 -5 -80 -2 l-31 5 35 7 c19 3 41 5 48 3 8 -2 28 -5 45 -5z m-11 -39 c18 -11 26 -20 18 -20 -15 0 -72 39 -58 40 4 0 22 -9 40 -20z m-60 -20 c28 0 48 -3 44 -7 -4 -4 10 -17 31 -30 l38 -23 -40 0 c-30 0 -36 -3 -25 -10 9 -6 10 -10 3 -10 -6 0 -15 5 -18 10 -3 6 -29 10 -56 10 -31 0 -48 -4 -44 -10 3 -6 -6 -5 -21 2 l-27 13 24 5 c24 6 23 6 -9 25 l-33 20 28 6 c15 4 34 5 41 3 8 -2 37 -4 64 -4z m2142 -126 c9 -20 15 -38 13 -40 -2 -2 -188 -3 -413 -2 l-409 3 370 36 c204 20 382 37 396 38 20 1 29 -7 43 -35z"/>
 <path d="M1525 3042 c-176 -30 -322 -57 -324 -59 -6 -4 11 -17 174 -128 l140 -95 324 35 c178 19 326 37 329 40 7 7 9 4 -153 149 -81 73 -137 116 -150 115 -11 0 -164 -26 -340 -57z"/>
 <path d="M3348 2881 c-26 -4 -50 -10 -54 -13 -3 -4 4 -21 17 -39 l22 -32 106 7 c58 4 109 10 113 14 4 4 -2 22 -13 40 -20 31 -23 32 -82 31 -34 -1 -83 -5 -109 -8z"/>
 <path d="M3123 2858 c-46 -6 -83 -14 -83 -19 0 -5 12 -22 28 -38 l27 -30 95 10 c52 6 96 12 99 14 9 9 -51 75 -67 74 -9 -1 -54 -6 -99 -11z"/>
 <path d="M2870 2833 c-74 -6 -77 -10 -40 -48 29 -30 39 -34 69 -30 20 2 62 7 93 10 l58 6 -26 35 c-28 36 -30 37 -154 27z"/>
 <path d="M2660 2813 c-73 -6 -77 -10 -45 -43 25 -26 36 -30 79 -29 28 0 68 3 88 7 l38 7 -26 33 c-27 34 -26 34 -134 25z"/>
 <path d="M2448 2793 c-32 -2 -58 -7 -58 -11 0 -4 16 -20 35 -35 34 -27 38 -28 110 -21 41 4 75 10 75 14 0 17 -63 60 -83 58 -12 -1 -48 -3 -79 -5z"/>
 <path d="M2253 2773 c-24 -2 -43 -6 -43 -9 0 -3 12 -16 28 -29 23 -21 37 -24 99 -25 39 0 74 4 77 9 3 5 -10 21 -28 35 -34 26 -42 27 -133 19z"/>
 <path d="M2945 2749 c-55 -5 -120 -11 -144 -14 l-44 -7 30 -30 30 -30 142 10 c78 5 145 12 148 16 7 7 -25 45 -47 55 -8 4 -60 4 -115 0z"/>
 <path d="M2611 2723 l-54 -4 29 -30 c26 -27 33 -29 104 -29 42 0 80 3 83 7 4 4 -5 19 -20 35 -19 20 -35 27 -57 26 -17 -1 -55 -3 -85 -5z"/>
 <path d="M2397 2701 c-17 -6 -16 -8 6 -29 14 -13 37 -27 53 -32 l29 -8 -34 -1 -34 -1 23 -25 c21 -23 31 -25 104 -25 l80 0 -29 29 c-20 22 -39 31 -69 34 -36 3 -35 4 13 5 l55 2 -29 30 c-26 27 -35 30 -89 29 -34 0 -69 -4 -79 -8z"/>
 <path d="M2250 2691 l-55 -6 36 -28 c35 -26 41 -27 105 -21 l67 7 -31 29 c-18 15 -40 27 -50 26 -9 -1 -42 -4 -72 -7z"/>
 <path d="M2069 2650 c19 -16 48 -31 65 -33 27 -3 26 -4 -9 -6 l-40 -2 30 -24 c25 -21 41 -25 99 -25 67 0 69 0 52 19 -10 11 -32 26 -49 35 -31 15 -31 16 -7 16 l25 1 -28 24 c-24 22 -37 25 -100 25 l-72 -1 34 -29z"/>
 <path d="M1370 2622 c0 -13 63 -41 100 -45 l35 -4 -40 -2 -40 -2 40 -24 c22 -14 36 -25 30 -25 -5 0 1 -9 15 -20 18 -14 41 -20 80 -20 l54 0 -24 17 c-14 10 -45 20 -70 24 l-45 6 45 2 45 2 -36 22 c-20 12 -36 26 -37 31 -1 20 -59 46 -104 46 -27 0 -48 -3 -48 -8z"/>
 <path d="M2290 2621 l-45 -6 29 -22 c23 -19 41 -23 97 -23 38 0 69 3 69 8 0 13 -66 52 -86 50 -10 0 -39 -4 -64 -7z"/>
 <path d="M2313 2535 c24 -22 38 -25 100 -25 l72 1 -30 24 c-26 21 -40 25 -100 25 l-70 -1 28 -24z"/>
 <path d="M1900 2460 c18 -14 41 -20 83 -20 31 0 57 2 57 5 0 14 -66 35 -112 35 l-53 0 25 -20z"/>
 <path d="M1613 2054 c3 -10 58 -255 122 -544 64 -289 120 -528 123 -531 4 -4 516 -43 1137 -88 622 -45 1145 -84 1164 -87 l34 -5 -7 83 c-4 46 -24 325 -45 621 -21 296 -40 540 -42 541 -2 2 -321 6 -709 10 -388 3 -947 9 -1244 13 -527 6 -538 6 -533 -13z"/>
 </g>
<g id="layer103" fill="#1c4d94" stroke="none">
 <path d="M2353 4420 c-71 -14 -150 -60 -222 -129 -38 -36 -255 -262 -482 -501 -226 -239 -428 -452 -449 -473 -20 -21 -52 -42 -71 -47 -19 -5 -61 -15 -94 -24 -57 -14 -101 -25 -320 -75 -49 -12 -137 -32 -195 -45 -58 -14 -127 -30 -155 -36 -64 -14 -75 -25 -75 -72 0 -36 1 -38 16 -24 8 9 19 16 23 16 5 0 29 -31 54 -69 38 -57 55 -73 109 -101 57 -29 147 -79 157 -86 2 -2 -72 -82 -164 -179 -93 -96 -179 -191 -192 -210 -42 -62 -64 -142 -65 -235 -1 -105 19 -176 69 -253 26 -39 326 -331 957 -932 807 -768 928 -880 985 -908 64 -31 68 -32 206 -32 l140 0 64 34 c67 37 119 88 516 504 203 212 213 229 152 233 -12 0 -53 4 -92 7 -38 4 -115 9 -170 12 -55 3 -107 8 -115 10 -8 2 -67 7 -130 10 -63 4 -117 8 -120 10 -3 1 -61 6 -130 10 -68 3 -127 8 -130 10 -3 2 -57 6 -120 10 -63 3 -122 8 -130 10 -8 2 -62 7 -120 10 -159 9 -190 21 -221 78 -11 23 -22 48 -24 57 -2 8 -12 53 -24 100 -11 47 -28 121 -37 165 -9 44 -20 96 -24 115 -4 19 -11 51 -15 70 -4 19 -9 42 -12 50 -4 8 -8 29 -10 45 -2 17 -8 44 -13 60 -5 17 -11 41 -14 55 -3 14 -10 48 -16 75 -6 28 -15 68 -19 90 -5 22 -11 47 -14 55 -3 8 -8 31 -11 50 -3 19 -10 50 -15 68 -5 18 -10 33 -10 35 1 3 -6 38 -22 112 -7 33 -14 65 -15 71 -1 8 264 13 914 17 1386 10 1680 9 1679 -5 -2 -11 9 -168 18 -268 1 -19 6 -80 10 -135 12 -164 13 -177 25 -189 9 -8 57 36 186 169 254 263 284 315 284 489 -1 105 -19 170 -71 246 -28 42 -625 621 -861 836 -57 51 -74 75 -112 156 -31 68 -55 104 -83 127 -39 33 -128 71 -165 71 -13 0 -94 71 -227 198 -416 397 -438 417 -495 445 -89 44 -191 57 -293 37z m1069 -771 c109 -35 143 -72 218 -236 137 -303 240 -533 240 -537 0 -3 -60 -24 -132 -46 -73 -23 -205 -64 -293 -91 -88 -27 -180 -56 -205 -63 -25 -8 -103 -32 -175 -54 -71 -23 -191 -60 -265 -83 -74 -23 -169 -52 -210 -65 -41 -13 -169 -53 -285 -89 l-210 -65 -316 0 c-269 0 -318 2 -329 15 -7 8 -15 15 -19 15 -4 0 -79 39 -166 86 -88 47 -186 100 -218 116 -57 30 -58 31 -53 67 3 20 8 79 11 131 7 97 43 422 49 427 1 1 49 14 107 27 57 13 205 47 329 76 124 29 259 60 300 70 41 10 262 61 490 114 645 149 844 196 855 200 6 3 55 5 110 5 76 1 116 -4 167 -20z m691 -1284 c9 -20 17 -38 17 -40 0 -3 -195 -4 -432 -4 l-433 1 375 38 c488 49 452 48 473 5z"/>
 <path d="M1613 2054 c3 -10 58 -255 122 -544 64 -289 120 -528 123 -531 4 -4 516 -43 1137 -88 622 -45 1145 -84 1164 -87 l34 -5 -7 83 c-4 46 -24 325 -45 621 -21 296 -40 540 -42 541 -2 2 -321 6 -709 10 -388 3 -947 9 -1244 13 -527 6 -538 6 -533 -13z"/>
 </g>
<g id="layer104" fill="#b2b2b2" stroke="none">
 <path d="M3185 3744 c-11 -3 -108 -26 -215 -50 -188 -44 -608 -141 -1140 -265 -346 -80 -549 -127 -650 -149 -47 -10 -112 -25 -145 -34 -56 -14 -100 -24 -320 -75 -49 -12 -137 -32 -195 -45 -58 -14 -127 -30 -155 -36 -64 -14 -75 -25 -75 -72 0 -36 1 -38 16 -24 8 9 19 16 23 16 5 0 29 -31 54 -68 36 -55 56 -75 99 -97 29 -15 81 -43 116 -62 35 -20 65 -33 68 -30 3 3 22 -4 42 -15 21 -12 66 -37 102 -55 36 -19 93 -50 127 -68 l62 -33 5 36 c3 21 8 80 11 132 7 97 43 422 49 427 1 1 49 14 107 27 57 13 205 47 329 76 124 29 259 60 300 70 41 10 262 61 490 114 228 53 512 119 630 148 268 64 387 73 500 37 111 -35 145 -71 220 -236 137 -303 240 -533 240 -537 0 -3 -60 -24 -132 -46 -73 -23 -205 -64 -293 -91 -88 -27 -180 -56 -205 -63 -25 -8 -103 -32 -175 -54 -71 -23 -191 -60 -265 -83 -74 -23 -166 -51 -205 -63 -38 -13 -163 -51 -278 -87 l-207 -64 551 -3 551 -2 421 40 c231 22 428 40 437 40 9 0 25 -17 35 -37 16 -33 19 -35 23 -16 2 12 -30 95 -74 190 -42 92 -114 251 -159 353 -45 102 -111 246 -145 320 -34 74 -73 162 -85 195 -81 213 -128 276 -232 315 -52 19 -216 35 -258 24z"/>
 </g>
<g id="layer105" fill="#fafbfb" stroke="none">
 <path d="M3185 3743 c-137 -31 -673 -155 -1355 -314 -346 -80 -549 -127 -650 -149 -47 -10 -112 -25 -145 -34 -56 -14 -100 -24 -320 -75 -49 -12 -137 -32 -195 -45 -58 -14 -127 -30 -155 -36 -65 -14 -75 -24 -75 -73 0 -34 2 -38 13 -26 6 9 55 25 107 37 117 27 241 56 525 123 121 28 274 64 340 79 66 15 230 53 365 84 135 31 333 77 440 102 107 25 240 56 295 69 107 26 263 62 410 96 50 11 144 33 210 49 257 62 349 62 482 -1 74 -35 96 -62 153 -189 23 -52 55 -122 70 -155 15 -33 58 -127 95 -210 37 -82 77 -172 90 -200 12 -27 71 -158 131 -290 59 -132 111 -244 116 -249 4 -6 8 0 8 13 0 12 -34 97 -76 189 -42 92 -114 250 -159 352 -45 102 -111 246 -145 320 -34 74 -73 162 -85 195 -49 127 -103 232 -135 258 -18 15 -51 36 -74 47 -69 31 -214 48 -281 33z"/>
 <path d="M3470 2744 c-41 -14 -77 -27 -80 -30 -6 -7 175 5 202 13 14 3 16 8 8 24 -14 24 -37 23 -130 -7z"/>
 <path d="M3485 2703 c-76 -5 -80 -8 -56 -42 l21 -30 93 5 c121 7 120 7 99 44 -18 32 -20 32 -157 23z"/>
 <path d="M3265 2680 c-11 -5 -63 -23 -115 -39 -52 -16 -84 -30 -70 -30 47 -1 312 18 317 23 3 2 -3 16 -12 30 -14 21 -25 26 -59 25 -22 0 -50 -4 -61 -9z"/>
 <path d="M974 2645 c25 -19 36 -19 36 0 0 10 -10 15 -27 15 -27 -1 -27 -1 -9 -15z"/>
 <path d="M3533 2623 c-35 -2 -63 -7 -63 -11 0 -4 7 -18 16 -31 16 -22 21 -23 110 -19 51 2 96 7 100 11 4 3 -1 18 -10 32 -18 27 -10 26 -153 18z"/>
 <path d="M3330 2612 c-86 -3 -102 -12 -75 -42 15 -16 30 -20 89 -20 39 0 81 3 93 6 21 6 21 8 7 29 -19 30 -24 31 -114 27z"/>
 <path d="M3032 2593 c-10 -4 -8 -11 9 -29 20 -22 31 -24 106 -24 46 0 83 2 83 5 0 3 -7 17 -16 30 -15 23 -22 25 -93 24 -42 0 -82 -3 -89 -6z"/>
 <path d="M2907 2568 c-31 -11 -55 -24 -51 -29 6 -10 86 -12 133 -3 l32 7 -22 23 c-26 28 -19 28 -92 2z"/>
 <path d="M3526 2542 c-3 -5 2 -18 10 -30 13 -19 25 -22 77 -22 34 0 79 3 99 6 36 6 37 7 21 30 -14 22 -21 24 -109 24 -51 0 -95 -4 -98 -8z"/>
 <path d="M3231 2533 l-43 -4 23 -25 c21 -22 30 -24 114 -24 51 0 113 3 138 6 46 7 46 7 30 30 -15 23 -20 24 -117 22 -55 -1 -121 -3 -145 -5z"/>
 <path d="M3032 2521 l-44 -6 25 -23 c24 -22 30 -23 102 -17 l76 7 -22 24 c-24 25 -46 28 -137 15z"/>
 <path d="M2800 2511 c0 -26 47 -41 125 -41 l80 1 -28 24 c-25 22 -38 25 -103 25 -41 0 -74 -4 -74 -9z"/>
 <path d="M2675 2496 c-38 -12 -39 -13 -18 -24 12 -7 52 -12 89 -12 l67 0 -23 25 c-26 28 -53 30 -115 11z"/>
 <path d="M2595 2470 c-18 -8 -17 -9 8 -9 16 -1 26 3 22 9 -3 6 -7 10 -8 9 -1 0 -11 -4 -22 -9z"/>
 <path d="M3432 2473 c-45 -4 -52 -6 -42 -19 9 -10 36 -14 98 -14 84 0 85 0 67 20 -11 12 -29 19 -44 18 -14 -1 -50 -3 -79 -5z"/>
 <path d="M3592 2460 c11 -18 24 -20 100 -20 49 0 88 4 88 8 0 24 -30 32 -112 32 -86 0 -88 -1 -76 -20z"/>
 <path d="M3207 2463 c-4 -3 -2 -12 4 -20 8 -9 36 -13 85 -13 74 0 85 5 62 28 -13 13 -140 17 -151 5z"/>
 <path d="M2850 2450 c0 -18 39 -30 99 -30 64 0 72 5 44 26 -21 15 -143 19 -143 4z"/>
 <path d="M3020 2445 c9 -11 33 -15 87 -15 66 0 74 2 63 15 -9 11 -33 15 -87 15 -66 0 -74 -2 -63 -15z"/>
 <path d="M2552 2438 c3 -8 30 -14 74 -16 63 -3 67 -2 49 12 -25 19 -129 22 -123 4z"/>
 <path d="M2700 2435 c14 -17 140 -22 140 -6 0 15 -28 21 -92 21 -53 0 -59 -2 -48 -15z"/>
 <path d="M2455 2425 c-30 -13 -29 -13 29 -14 51 -1 57 1 46 14 -15 18 -36 18 -75 0z"/>
 </g>

</svg>